<svg width="72" height="73" viewBox="0 0 72 73" fill="none" xmlns="http://www.w3.org/2000/svg">
<g id="budujemy dobre relacje" clip-path="url(#clip0_102_135)">
<path id="Vector" d="M32.7118 72.4998C31.3039 72.4998 29.896 71.9107 28.8245 70.7324L28.3552 70.2164C27.2373 68.9873 26.7016 67.355 26.7499 65.7405C25.0661 66.0373 23.2795 65.4725 21.9844 64.0485L21.5151 63.5324C20.4053 62.3121 19.8696 60.6954 19.9099 59.092C19.5674 59.1628 19.217 59.2005 18.8625 59.2005C17.3881 59.2005 16.0064 58.5759 14.9732 57.4398L14.5039 56.9238C13.4706 55.7876 12.9006 54.2706 12.9006 52.6516C12.9006 52.4744 12.9066 52.2995 12.9207 52.1267C12.6931 52.1577 12.4575 52.1799 12.2319 52.1732C10.7575 52.1732 9.37784 51.5487 8.34457 50.4125L7.87528 49.8965C5.73222 47.5401 5.73222 43.7042 7.87528 41.3455L8.79776 40.3312L4.84397 35.9904C1.14599 31.9286 -0.48548 26.8946 0.124809 21.4243C0.654532 16.6671 2.86607 11.9055 6.35459 8.01648C9.91763 4.04109 14.3468 1.47867 18.8222 0.798761C23.9664 0.0169707 28.7077 1.76659 32.5305 5.85936L34.5286 8.04527L37.0382 5.29904C40.0796 2.04342 44.1844 0.391255 48.9399 0.504205C52.8836 0.599438 56.2956 1.87511 58.0177 2.93816C60.4709 4.45081 62.9181 6.60793 65.0914 9.1792C71.9818 17.3249 75.3515 29.4814 67.3432 38.2738L63.5264 42.464C65.7218 45.2833 64.9423 49.2653 62.8919 51.4335C61.8647 52.5187 60.4709 53.2009 58.9764 53.1056C59.0368 54.873 58.3117 56.5074 57.2019 57.6945C55.786 59.2071 53.6993 60.0376 51.7436 59.6323C51.6952 61.2136 51.0265 62.651 50.0376 63.7074C47.9831 65.9044 44.4302 66.5909 41.9689 64.0064C41.703 64.8236 41.274 65.5899 40.6798 66.2432L36.5971 70.7324C35.5256 71.9107 34.1177 72.4998 32.7098 72.4998H32.7118ZM36.3232 58.5117C35.6041 58.5117 34.9314 58.8151 34.4299 59.3688L30.3472 63.858C29.3019 65.0074 29.3019 66.8744 30.3472 68.0239L30.8165 68.5399C31.8437 69.6694 33.5779 69.6694 34.6051 68.5399L38.6878 64.0507C39.4109 63.2556 39.6325 62.1172 39.3565 61.1118L37.4552 59.0034C37.3665 58.9059 37.292 58.7974 37.2336 58.6822C36.9476 58.5693 36.6414 58.5117 36.3252 58.5117H36.3232ZM32.0492 49.0062C31.3301 49.0062 30.6574 49.3118 30.1538 49.8633L23.5051 57.174C22.4598 58.3235 22.4598 60.1904 23.5051 61.3399L23.9744 61.8559C25.0198 63.0053 26.7197 63.0053 27.763 61.8559L34.4118 54.5452C35.4571 53.3957 35.4571 51.5288 34.4118 50.3793L33.9425 49.8633C33.4389 49.3096 32.7662 49.0062 32.0492 49.0062ZM41.7614 59.3754L43.8561 61.6964C45.0908 63.0651 46.97 62.6643 48.0738 61.4838C48.6418 60.877 49.7596 59.2293 47.8663 57.0434C47.6931 56.844 47.5783 56.6071 47.5199 56.3568L40.1199 47.9985C39.5761 47.385 39.5881 46.4039 40.1461 45.806C40.704 45.208 41.5963 45.2213 42.1401 45.8347L50.948 55.7854C52.2874 57.2981 54.2633 56.5118 55.2381 55.4709C55.8323 54.8375 57.0045 53.1366 55.1435 50.9928C55.1334 50.9817 55.1233 50.9706 55.1133 50.9596L47.1009 41.8749C47.0727 41.8439 47.0466 41.8128 47.0224 41.7796L46.5048 41.1927C45.9629 40.577 45.977 39.5959 46.537 39.0002C47.0969 38.4044 47.9892 38.4199 48.531 39.0356L57.1395 48.8025C57.1496 48.8135 57.1596 48.8246 57.1697 48.8357C58.9099 50.7802 60.2775 49.9009 60.9402 49.2011C62.0802 47.9963 62.5334 45.7971 61.2766 44.3487L44.1824 24.6445C43.6447 24.0244 43.6668 23.0432 44.2288 22.4519C44.7927 21.8606 45.685 21.8849 46.2228 22.5029L61.5888 40.2138L65.3532 36.0812C72.4894 28.2456 68.5618 17.8298 63.0289 11.292C61.051 8.9533 58.8415 7.00214 56.64 5.64453C54.6399 4.41094 45.2197 0.867416 39.0161 7.50931L25.7509 22.0223C25.1245 22.7066 25.3461 22.9524 25.6019 23.2359C26.8849 24.66 31.2314 25.3598 33.8035 22.5737L37.147 18.9505C37.1611 18.935 37.1752 18.9217 37.1893 18.9062C40.0373 16.0669 43.2761 17.1433 46.1342 18.0912C49.4192 19.183 52.5251 20.2151 56.1505 17.068C56.7628 16.5364 57.6491 16.6516 58.1305 17.3249C58.6118 17.9981 58.5091 18.9726 57.8968 19.5019C53.1172 23.6501 48.7928 22.2127 45.3184 21.0589C42.414 20.0933 40.6879 19.6215 39.1047 21.1807L35.7834 24.7796C32.0391 28.8369 25.906 27.9754 23.5998 25.4152C22.1073 23.7586 22.1717 21.5638 23.7629 19.8208L32.5305 10.229L30.5547 8.06742C23.4447 0.459911 14.0648 3.8329 8.3627 10.1935C2.86205 16.3283 0.0361859 26.3299 6.82993 33.7912L10.7837 38.132L13.956 34.6439C14.9913 33.5055 16.371 32.8787 17.8433 32.8787H17.8453C19.3177 32.8787 20.6974 33.5055 21.7327 34.6439L22.202 35.1599C22.9996 36.0347 23.4991 37.1155 23.7045 38.2494L24.196 37.709C25.2312 36.5706 26.613 35.9439 28.0853 35.9439C29.5577 35.9439 30.9394 36.5706 31.9746 37.709L32.4439 38.225C34.3675 40.3401 34.5648 43.6422 33.0381 46.0031C34.1318 46.2201 35.1369 46.7937 35.9365 47.673L36.4058 48.189C38.2064 50.1689 38.4945 53.1898 37.2739 55.5019C38.3837 55.7123 39.4028 56.2904 40.2105 57.1785L40.6798 57.6945C41.137 58.1972 41.4976 58.7664 41.7594 59.3754H41.7614ZM28.0873 39.0378C27.4005 39.0378 26.7157 39.3257 26.192 39.8993L16.4938 50.5631C15.9923 51.1146 15.7164 51.8543 15.7164 52.6472C15.7164 53.4378 15.9923 54.1775 16.4938 54.729L16.9631 55.245C17.4647 55.7965 18.1374 56.0977 18.8585 56.0977C19.5795 56.0977 20.2523 55.7943 20.7518 55.245L30.4499 44.5812C31.4953 43.4318 31.4953 41.5626 30.4499 40.4154L29.9806 39.8993C29.459 39.3257 28.7721 39.0378 28.0873 39.0378ZM17.8453 35.9793C17.1263 35.9793 16.4536 36.2827 15.952 36.8364L9.86526 43.5337C8.81992 44.6831 8.82193 46.5523 9.86526 47.6995L10.3346 48.2156C10.8341 48.767 11.5068 49.0682 12.2279 49.0682C12.9489 49.0682 13.6217 48.7648 14.1212 48.2156L20.2079 41.5183C21.2352 40.3888 21.2352 38.4819 20.2079 37.3524L19.7386 36.8364C19.2371 36.285 18.5644 35.9793 17.8453 35.9793Z" fill="#5D7F8C"/>
</g>
<defs>
<clipPath id="clip0_102_135">
<rect width="72" height="72" fill="white" transform="translate(0 0.5)"/>
</clipPath>
</defs>
</svg>
