<svg width="67" height="73" viewBox="0 0 67 73" fill="none" xmlns="http://www.w3.org/2000/svg">
<g id="Frame 100">
<path id="Vector" d="M44.3417 53.7103H21.5353C20.6824 53.7103 19.9901 53.021 19.9901 52.1718V38.1882C19.9901 37.339 20.6824 36.6497 21.5353 36.6497C22.3882 36.6497 23.0804 37.339 23.0804 38.1882V50.6333H42.7965V30.7297L33.0909 22.1L17.487 35.9749C17.4066 36.2436 17.2501 36.4877 17.0358 36.6785L16.8834 36.8159C16.2468 37.382 15.2702 37.3267 14.7016 36.6949C14.4008 36.3605 14.2751 35.9318 14.3163 35.5174C14.3081 35.4415 14.306 35.3636 14.3102 35.2856C14.3308 34.8754 14.5162 34.4918 14.8232 34.2169L31.9084 19.0251C32.2421 18.7277 32.6727 18.6005 33.0909 18.6415C33.5071 18.6005 33.9397 18.7277 34.2735 19.0251L42.7965 26.6046V20.5841C42.7965 19.7349 43.4888 19.0456 44.3417 19.0456C45.1946 19.0456 45.8868 19.7349 45.8868 20.5841V29.3513L51.3567 34.2149C51.6636 34.4877 51.849 34.8733 51.8696 35.2836C51.8738 35.3615 51.8696 35.4374 51.8635 35.5154C51.9047 35.9297 51.779 36.3585 51.4782 36.6928C50.9096 37.3267 49.9331 37.382 49.2965 36.8138L49.144 36.6764C48.9297 36.4856 48.7752 36.2415 48.6949 35.9728L45.8868 33.4764V52.1718C45.8868 53.021 45.1946 53.7103 44.3417 53.7103ZM37.1495 46.1677H28.7274C27.8745 46.1677 27.1823 45.4785 27.1823 44.6292V36.2436C27.1823 35.3944 27.8745 34.7051 28.7274 34.7051H37.1495C38.0025 34.7051 38.6947 35.3944 38.6947 36.2436V44.6292C38.6947 45.4785 38.0025 46.1677 37.1495 46.1677ZM30.2726 43.0908H35.6044V37.782H30.2726V43.0908Z" fill="#5D7F8C"/>
<path id="Vector_2" d="M33.0909 72.5001C32.8849 72.5001 32.6809 72.4591 32.4873 72.3791C21.4322 67.7165 14.2442 63.4478 9.17818 58.537C3.00171 52.5514 0 45.4724 0 36.898C0 32.4652 0.0267826 27.2242 0.0535652 22.1575C0.0803477 17.0909 0.10713 11.8498 0.10713 7.41907C0.10713 6.77702 0.506809 6.20266 1.11251 5.97702C1.71615 5.75343 2.39807 5.92574 2.82041 6.40984C5.09899 9.02318 11.0447 10.1309 17.6168 9.16676C24.5947 8.14317 29.9841 5.16882 31.6817 1.40676C31.931 0.85497 32.4831 0.498047 33.0909 0.498047C33.6987 0.498047 34.2508 0.852919 34.5001 1.40676C36.1997 5.17087 41.5892 8.14317 48.5651 9.16676C55.135 10.1309 61.0828 9.02318 63.3614 6.40984C63.7837 5.92574 64.4657 5.75343 65.0693 5.97702C65.6729 6.20266 66.0747 6.77702 66.0747 7.41907C66.0747 11.8498 66.1015 17.0888 66.1283 22.1575C66.155 27.2263 66.1818 32.4652 66.1818 36.898C66.1818 45.4724 63.1801 52.5514 57.0036 58.537C51.9376 63.4457 44.7496 67.7165 33.6945 72.3791C33.5009 72.4611 33.2969 72.5001 33.0909 72.5001ZM3.19537 10.5104C3.18713 14.1965 3.16653 18.2375 3.14592 22.1739C3.11914 27.2386 3.09236 32.4734 3.09236 36.898C3.09236 53.0991 15.0601 61.6078 33.093 69.2898C51.1259 61.6098 63.0936 53.1011 63.0936 36.898C63.0936 32.4734 63.0668 27.2365 63.04 22.1739C63.0194 18.2375 62.9988 14.1965 62.9906 10.5104C59.4305 12.4078 54.006 13.0765 48.118 12.2129C41.3461 11.2201 35.9546 8.5801 33.093 4.96369C30.2314 8.5801 24.8398 11.2201 18.0679 12.2129C12.182 13.0765 6.75745 12.4078 3.19537 10.5104Z" fill="#5D7F8C"/>
</g>
</svg>
