<svg width="72" height="73" viewBox="0 0 72 73" fill="none" xmlns="http://www.w3.org/2000/svg">
<g id="inwestycje dopasowane do potrzeb" clip-path="url(#clip0_102_80)">
<path id="Vector" d="M63.8969 72.5C63.5329 72.5 63.1688 72.3616 62.8902 72.0829L46.1532 55.3408C41.4631 58.4149 35.8576 60.2033 29.8434 60.2033C13.3871 60.2033 0 46.812 0 30.3527C0 13.8933 13.3871 0.5 29.8434 0.5C46.2997 0.5 59.6868 13.8913 59.6868 30.3527C59.6868 36.3566 57.9051 41.9536 54.842 46.6411L71.5831 63.3873C72.1383 63.9428 72.1383 64.8461 71.5831 65.4015L64.9037 72.0829C64.6251 72.3616 64.261 72.5 63.8969 72.5ZM48.7749 53.9349L63.8969 69.0616L68.5627 64.3944L53.5159 49.343L48.7729 53.9349H48.7749ZM29.8434 3.34834C14.9573 3.34834 2.84746 15.4619 2.84746 30.3527C2.84746 45.2434 14.9573 57.357 29.8434 57.357C44.7295 57.357 56.8393 45.2434 56.8393 30.3527C56.8393 15.4619 44.7275 3.34834 29.8434 3.34834ZM40.3302 46.1406H17.8149C17.0278 46.1406 16.3912 45.5038 16.3912 44.7164V30.8471C16.3912 30.0597 17.0278 29.4229 17.8149 29.4229C18.602 29.4229 19.2386 30.0597 19.2386 30.8471V43.2923H38.9064V23.4027L29.223 14.7519L13.7288 28.5928C13.6556 28.8532 13.5112 29.0892 13.3058 29.2723L13.1532 29.4086C12.5675 29.9315 11.6664 29.8827 11.1437 29.2947C10.8651 28.9814 10.7492 28.5806 10.7898 28.1961C10.7817 28.1228 10.7797 28.0475 10.7837 27.9723C10.8041 27.5918 10.9729 27.2358 11.2576 26.9835L28.1247 11.9158C28.4339 11.6391 28.8366 11.5211 29.223 11.5617C29.6115 11.5211 30.0122 11.6391 30.3214 11.9158L38.9064 19.5839V13.3867C38.9064 12.5994 39.543 11.9625 40.3302 11.9625C41.1173 11.9625 41.7539 12.5994 41.7539 13.3867V22.1291L47.1885 26.9835C47.4712 27.2378 47.642 27.5938 47.6624 27.9723C47.6664 28.0475 47.6624 28.1228 47.6563 28.1961C47.6969 28.5826 47.581 28.9834 47.3024 29.2967C46.7776 29.8827 45.8786 29.9336 45.2929 29.4086L45.1424 29.2723C44.939 29.0892 44.7925 28.8532 44.7193 28.5948L41.7559 25.9479V44.7164C41.7559 45.5038 41.1193 46.1406 40.3322 46.1406H40.3302ZM33.2298 38.6597H24.9153C24.1281 38.6597 23.4915 38.0228 23.4915 37.2355V28.9183C23.4915 28.131 24.1281 27.4941 24.9153 27.4941H33.2298C34.0169 27.4941 34.6536 28.131 34.6536 28.9183V37.2355C34.6536 38.0228 34.0169 38.6597 33.2298 38.6597ZM26.339 35.8113H31.8061V30.3425H26.339V35.8113Z" fill="#5D7F8C"/>
</g>
<defs>
<clipPath id="clip0_102_80">
<rect width="72" height="72" fill="white" transform="translate(0 0.5)"/>
</clipPath>
</defs>
</svg>
