<svg width="72" height="73" viewBox="0 0 72 73" fill="none" xmlns="http://www.w3.org/2000/svg">
<g id="wspracie przy zakupie" clip-path="url(#clip0_102_133)">
<path id="Vector" d="M47.7147 72.5H1.52113C0.681465 72.5 0 71.8182 0 70.9781V2.02186C0 1.18179 0.681465 0.5 1.52113 0.5H47.7147C48.5544 0.5 49.2358 1.18179 49.2358 2.02186V70.9781C49.2358 71.8182 48.5544 72.5 47.7147 72.5ZM3.04225 69.4563H46.1936V3.54371H3.04225V69.4563ZM60.2143 66.6236C59.3747 66.6236 58.6932 65.9418 58.6932 65.1018V61.4209C57.7075 61.0516 56.8131 60.3576 56.1174 59.3978C55.0323 57.9003 54.4584 55.8265 54.4584 53.4017V15.4669C54.4239 15.3391 54.4036 15.2032 54.4036 15.0631C54.4036 14.9231 54.4219 14.7892 54.4584 14.6593V7.89622C54.4584 7.05615 55.1398 6.37436 55.9795 6.37436H64.7432C65.1468 6.37436 65.5342 6.53466 65.8181 6.82077C66.1041 7.10688 66.2643 7.49242 66.2643 7.89622V13.5393H70.4769C70.8805 13.5393 71.2678 13.6996 71.5538 13.9857C71.8398 14.2718 72 14.6593 71.998 15.0631L71.9655 32.0592C71.9655 32.8993 71.2841 33.5791 70.4444 33.5791H70.4424C69.6027 33.5791 68.9233 32.8952 68.9233 32.0552L68.9517 16.583H66.2623V53.3956C66.2623 58.1966 64.1064 60.804 61.7334 61.5183V65.0977C61.7334 65.9378 61.0519 66.6196 60.2123 66.6196L60.2143 66.6236ZM60.3096 58.6816C60.3279 58.6816 60.3441 58.6816 60.3624 58.6816C61.7841 58.6816 63.2241 56.8675 63.2241 53.3997V16.587H57.5027V53.4017C57.5027 56.7884 58.8757 58.5984 60.263 58.6816C60.2792 58.6816 60.2954 58.6815 60.3117 58.6836L60.3096 58.6816ZM57.5006 13.5433H63.2221V9.42213H57.5006V13.5433ZM37.5495 63.5028H11.6843C10.8446 63.5028 10.1632 62.821 10.1632 61.9809C10.1632 61.1409 10.8446 60.4591 11.6843 60.4591H37.5516C38.3912 60.4591 39.0727 61.1409 39.0727 61.9809C39.0727 62.821 38.3912 63.5028 37.5516 63.5028H37.5495ZM37.5495 56.5205H11.6843C10.8446 56.5205 10.1632 55.8387 10.1632 54.9987C10.1632 54.1586 10.8446 53.4768 11.6843 53.4768H37.5516C38.3912 53.4768 39.0727 54.1586 39.0727 54.9987C39.0727 55.8387 38.3912 56.5205 37.5516 56.5205H37.5495ZM35.6917 45.9933H13.2399C12.4002 45.9933 11.7188 45.3115 11.7188 44.4715V30.6388C11.7188 29.7988 12.4002 29.117 13.2399 29.117C14.0795 29.117 14.761 29.7988 14.761 30.6388V42.9496H34.1706V23.2609L24.6159 14.7243L9.25454 28.4494C9.17544 28.7152 9.02332 28.9567 8.8124 29.1454L8.66231 29.2813C8.03561 29.8414 7.07425 29.7886 6.51448 29.1616C6.21837 28.8309 6.09262 28.4068 6.13318 27.9969C6.12507 27.9218 6.12304 27.8447 6.1271 27.7676C6.14738 27.3618 6.32992 26.9803 6.63211 26.7104L23.4537 11.6826C23.7823 11.3884 24.2062 11.2626 24.6179 11.3031C25.0296 11.2626 25.4535 11.3884 25.7821 11.6826L34.1726 19.1803V13.2247C34.1726 12.3847 34.8541 11.7029 35.6938 11.7029C36.5334 11.7029 37.2149 12.3847 37.2149 13.2247V21.8973L42.5997 26.7084C42.9019 26.9783 43.0844 27.3597 43.1047 27.7656C43.1087 27.8427 43.1067 27.9177 43.0986 27.9949C43.1392 28.4047 43.0134 28.8288 42.7173 29.1596C42.1575 29.7866 41.1962 29.8393 40.5695 29.2793L40.4194 29.1434C40.2085 28.9546 40.0563 28.7132 39.9772 28.4474L37.2128 25.9779V44.4715C37.2128 45.3115 36.5314 45.9933 35.6917 45.9933ZM28.6114 38.5322H20.3202C19.4806 38.5322 18.7991 37.8504 18.7991 37.0103V28.7152C18.7991 27.8751 19.4806 27.1933 20.3202 27.1933H28.6114C29.451 27.1933 30.1325 27.8751 30.1325 28.7152V37.0103C30.1325 37.8504 29.451 38.5322 28.6114 38.5322ZM21.8414 35.4885H27.0903V30.2371H21.8414V35.4885Z" fill="#5D7F8C"/>
</g>
<defs>
<clipPath id="clip0_102_133">
<rect width="72" height="72" fill="white" transform="translate(0 0.5)"/>
</clipPath>
</defs>
</svg>
